<mxfile host="app.diagrams.net" agent="Mozilla/5.0 (Windows NT 10.0; Win64; x64) AppleWebKit/537.36 (KHTML, like Gecko) Chrome/130.0.0.0 Safari/537.36" version="25.0.3">
  <diagram name="Trang-1" id="bYZFkdFEKhYqt-1y6e09">
    <mxGraphModel grid="0" page="0" gridSize="10" guides="1" tooltips="1" connect="1" arrows="1" fold="1" pageScale="1" pageWidth="827" pageHeight="1169" math="0" shadow="0">
      <root>
        <mxCell id="0" />
        <mxCell id="1" parent="0" />
        <mxCell id="i_tsb9h0ke1adV2tE7oU-1" value="Administrator" style="shape=umlActor;verticalLabelPosition=bottom;verticalAlign=top;html=1;" vertex="1" parent="1">
          <mxGeometry x="-168" y="257" width="30" height="60" as="geometry" />
        </mxCell>
        <mxCell id="i_tsb9h0ke1adV2tE7oU-2" value="&lt;span style=&quot;font-size: 18px;&quot;&gt;Koi Fram Shop&lt;/span&gt;" style="swimlane;whiteSpace=wrap;html=1;startSize=67;" vertex="1" parent="1">
          <mxGeometry x="-70" y="-24" width="639" height="574" as="geometry" />
        </mxCell>
        <mxCell id="i_tsb9h0ke1adV2tE7oU-3" value="quản lý hồ cá" style="ellipse;whiteSpace=wrap;html=1;" vertex="1" parent="i_tsb9h0ke1adV2tE7oU-2">
          <mxGeometry x="109" y="159" width="120" height="80" as="geometry" />
        </mxCell>
        <mxCell id="i_tsb9h0ke1adV2tE7oU-4" value="xử lý đơn hàng" style="ellipse;whiteSpace=wrap;html=1;" vertex="1" parent="i_tsb9h0ke1adV2tE7oU-2">
          <mxGeometry x="127" y="317" width="120" height="80" as="geometry" />
        </mxCell>
        <mxCell id="i_tsb9h0ke1adV2tE7oU-5" value="quản lý kho" style="ellipse;whiteSpace=wrap;html=1;" vertex="1" parent="i_tsb9h0ke1adV2tE7oU-2">
          <mxGeometry x="134" y="454" width="120" height="80" as="geometry" />
        </mxCell>
        <mxCell id="i_tsb9h0ke1adV2tE7oU-6" value="Thêm mới thông tin cá koi" style="ellipse;whiteSpace=wrap;html=1;" vertex="1" parent="i_tsb9h0ke1adV2tE7oU-2">
          <mxGeometry x="349" y="89" width="120" height="51" as="geometry" />
        </mxCell>
        <mxCell id="i_tsb9h0ke1adV2tE7oU-7" value="sửa thông tin cá koi" style="ellipse;whiteSpace=wrap;html=1;" vertex="1" parent="i_tsb9h0ke1adV2tE7oU-2">
          <mxGeometry x="351" y="150" width="120" height="46" as="geometry" />
        </mxCell>
        <mxCell id="i_tsb9h0ke1adV2tE7oU-8" value="xóa thông tin cá koi" style="ellipse;whiteSpace=wrap;html=1;" vertex="1" parent="i_tsb9h0ke1adV2tE7oU-2">
          <mxGeometry x="349" y="200" width="120" height="53" as="geometry" />
        </mxCell>
        <mxCell id="i_tsb9h0ke1adV2tE7oU-9" value="cập nhật trạng thái(còn hàng, hết hàng)" style="ellipse;whiteSpace=wrap;html=1;" vertex="1" parent="i_tsb9h0ke1adV2tE7oU-2">
          <mxGeometry x="349" y="260" width="120" height="50" as="geometry" />
        </mxCell>
        <mxCell id="i_tsb9h0ke1adV2tE7oU-10" value="xác nhận đơn hàng" style="ellipse;whiteSpace=wrap;html=1;" vertex="1" parent="i_tsb9h0ke1adV2tE7oU-2">
          <mxGeometry x="349" y="317" width="120" height="49" as="geometry" />
        </mxCell>
        <mxCell id="i_tsb9h0ke1adV2tE7oU-11" value="chuẩn bị hàng, giao hàng" style="ellipse;whiteSpace=wrap;html=1;" vertex="1" parent="i_tsb9h0ke1adV2tE7oU-2">
          <mxGeometry x="353" y="371" width="120" height="46" as="geometry" />
        </mxCell>
        <mxCell id="i_tsb9h0ke1adV2tE7oU-12" value="kiểm kê số lượng" style="ellipse;whiteSpace=wrap;html=1;" vertex="1" parent="i_tsb9h0ke1adV2tE7oU-2">
          <mxGeometry x="349" y="422" width="120" height="62" as="geometry" />
        </mxCell>
        <mxCell id="i_tsb9h0ke1adV2tE7oU-13" value="theo dõi nhập xuất kho" style="ellipse;whiteSpace=wrap;html=1;" vertex="1" parent="i_tsb9h0ke1adV2tE7oU-2">
          <mxGeometry x="351" y="491" width="120" height="70" as="geometry" />
        </mxCell>
        <mxCell id="i_tsb9h0ke1adV2tE7oU-17" value="" style="endArrow=open;endSize=12;dashed=1;html=1;rounded=0;exitX=0;exitY=0.5;exitDx=0;exitDy=0;entryX=1;entryY=0;entryDx=0;entryDy=0;" edge="1" parent="i_tsb9h0ke1adV2tE7oU-2" source="i_tsb9h0ke1adV2tE7oU-6" target="i_tsb9h0ke1adV2tE7oU-3">
          <mxGeometry width="160" relative="1" as="geometry">
            <mxPoint x="214.99999999999994" y="176" as="sourcePoint" />
            <mxPoint x="393.96" y="288.76" as="targetPoint" />
          </mxGeometry>
        </mxCell>
        <mxCell id="i_tsb9h0ke1adV2tE7oU-18" value="" style="endArrow=open;endSize=12;dashed=1;html=1;rounded=0;entryX=0.945;entryY=0.307;entryDx=0;entryDy=0;exitX=0;exitY=0.5;exitDx=0;exitDy=0;entryPerimeter=0;" edge="1" parent="i_tsb9h0ke1adV2tE7oU-2" source="i_tsb9h0ke1adV2tE7oU-7" target="i_tsb9h0ke1adV2tE7oU-3">
          <mxGeometry width="160" relative="1" as="geometry">
            <mxPoint x="236" y="184" as="sourcePoint" />
            <mxPoint x="359" y="125" as="targetPoint" />
          </mxGeometry>
        </mxCell>
        <mxCell id="i_tsb9h0ke1adV2tE7oU-47" value="" style="endArrow=open;endSize=12;dashed=1;html=1;rounded=0;entryX=1;entryY=0.5;entryDx=0;entryDy=0;exitX=0;exitY=0.5;exitDx=0;exitDy=0;" edge="1" parent="i_tsb9h0ke1adV2tE7oU-2" source="i_tsb9h0ke1adV2tE7oU-8" target="i_tsb9h0ke1adV2tE7oU-3">
          <mxGeometry width="160" relative="1" as="geometry">
            <mxPoint x="255" y="227" as="sourcePoint" />
            <mxPoint x="361" y="183" as="targetPoint" />
          </mxGeometry>
        </mxCell>
        <mxCell id="i_tsb9h0ke1adV2tE7oU-48" value="" style="endArrow=open;endSize=12;dashed=1;html=1;rounded=0;exitX=0;exitY=0.5;exitDx=0;exitDy=0;" edge="1" parent="i_tsb9h0ke1adV2tE7oU-2" source="i_tsb9h0ke1adV2tE7oU-9" target="i_tsb9h0ke1adV2tE7oU-3">
          <mxGeometry width="160" relative="1" as="geometry">
            <mxPoint x="257" y="255" as="sourcePoint" />
            <mxPoint x="371" y="193" as="targetPoint" />
          </mxGeometry>
        </mxCell>
        <mxCell id="i_tsb9h0ke1adV2tE7oU-50" value="" style="endArrow=open;endSize=12;dashed=1;html=1;rounded=0;exitX=0;exitY=0.5;exitDx=0;exitDy=0;entryX=0.975;entryY=0.362;entryDx=0;entryDy=0;entryPerimeter=0;" edge="1" parent="i_tsb9h0ke1adV2tE7oU-2" source="i_tsb9h0ke1adV2tE7oU-10" target="i_tsb9h0ke1adV2tE7oU-4">
          <mxGeometry width="160" relative="1" as="geometry">
            <mxPoint x="223" y="214" as="sourcePoint" />
            <mxPoint x="359" y="201" as="targetPoint" />
          </mxGeometry>
        </mxCell>
        <mxCell id="i_tsb9h0ke1adV2tE7oU-53" value="" style="endArrow=open;endSize=12;dashed=1;html=1;rounded=0;entryX=0.027;entryY=0.946;entryDx=0;entryDy=0;entryPerimeter=0;" edge="1" parent="i_tsb9h0ke1adV2tE7oU-2" target="i_tsb9h0ke1adV2tE7oU-65">
          <mxGeometry width="160" relative="1" as="geometry">
            <mxPoint x="349" y="516" as="sourcePoint" />
            <mxPoint x="389" y="231" as="targetPoint" />
          </mxGeometry>
        </mxCell>
        <mxCell id="i_tsb9h0ke1adV2tE7oU-52" value="" style="endArrow=open;endSize=12;dashed=1;html=1;rounded=0;entryX=0.923;entryY=0.18;entryDx=0;entryDy=0;entryPerimeter=0;exitX=0;exitY=0.5;exitDx=0;exitDy=0;" edge="1" parent="i_tsb9h0ke1adV2tE7oU-2" source="i_tsb9h0ke1adV2tE7oU-12" target="i_tsb9h0ke1adV2tE7oU-5">
          <mxGeometry width="160" relative="1" as="geometry">
            <mxPoint x="214" y="448" as="sourcePoint" />
            <mxPoint x="345" y="449" as="targetPoint" />
          </mxGeometry>
        </mxCell>
        <mxCell id="i_tsb9h0ke1adV2tE7oU-56" value="&amp;lt;&amp;lt;extend&amp;gt;&amp;gt;" style="text;html=1;align=center;verticalAlign=middle;resizable=0;points=[];autosize=1;strokeColor=none;fillColor=none;" vertex="1" parent="i_tsb9h0ke1adV2tE7oU-2">
          <mxGeometry x="242" y="154" width="82" height="26" as="geometry" />
        </mxCell>
        <mxCell id="i_tsb9h0ke1adV2tE7oU-57" value="&amp;lt;&amp;lt;extend&amp;gt;&amp;gt;" style="text;html=1;align=center;verticalAlign=middle;resizable=0;points=[];autosize=1;strokeColor=none;fillColor=none;" vertex="1" parent="i_tsb9h0ke1adV2tE7oU-2">
          <mxGeometry x="249" y="325" width="82" height="26" as="geometry" />
        </mxCell>
        <mxCell id="i_tsb9h0ke1adV2tE7oU-61" value="&amp;lt;&amp;lt;extend&amp;gt;&amp;gt;" style="text;html=1;align=center;verticalAlign=middle;resizable=0;points=[];autosize=1;strokeColor=none;fillColor=none;" vertex="1" parent="i_tsb9h0ke1adV2tE7oU-2">
          <mxGeometry x="267" y="229" width="82" height="26" as="geometry" />
        </mxCell>
        <mxCell id="i_tsb9h0ke1adV2tE7oU-55" value="&amp;lt;&amp;lt;extend&amp;gt;&amp;gt;" style="text;html=1;align=center;verticalAlign=middle;resizable=0;points=[];autosize=1;strokeColor=none;fillColor=none;" vertex="1" parent="i_tsb9h0ke1adV2tE7oU-2">
          <mxGeometry x="204" y="128" width="82" height="26" as="geometry" />
        </mxCell>
        <mxCell id="i_tsb9h0ke1adV2tE7oU-59" value="&amp;lt;&amp;lt;extend&amp;gt;&amp;gt;" style="text;html=1;align=center;verticalAlign=middle;resizable=0;points=[];autosize=1;strokeColor=none;fillColor=none;" vertex="1" parent="i_tsb9h0ke1adV2tE7oU-2">
          <mxGeometry x="251" y="191" width="82" height="26" as="geometry" />
        </mxCell>
        <mxCell id="i_tsb9h0ke1adV2tE7oU-62" value="&amp;lt;&amp;lt;extend&amp;gt;&amp;gt;" style="text;html=1;align=center;verticalAlign=middle;resizable=0;points=[];autosize=1;strokeColor=none;fillColor=none;" vertex="1" parent="i_tsb9h0ke1adV2tE7oU-2">
          <mxGeometry x="267" y="358" width="82" height="26" as="geometry" />
        </mxCell>
        <mxCell id="ONON0Z0Q7UPNdec3rAza-4" value="" style="endArrow=open;endSize=12;dashed=1;html=1;rounded=0;entryX=0.955;entryY=0.642;entryDx=0;entryDy=0;entryPerimeter=0;" edge="1" parent="i_tsb9h0ke1adV2tE7oU-2" target="i_tsb9h0ke1adV2tE7oU-4">
          <mxGeometry width="160" relative="1" as="geometry">
            <mxPoint x="354" y="401" as="sourcePoint" />
            <mxPoint x="248" y="401" as="targetPoint" />
          </mxGeometry>
        </mxCell>
        <mxCell id="i_tsb9h0ke1adV2tE7oU-14" value="" style="endArrow=none;html=1;rounded=0;entryX=0;entryY=0.5;entryDx=0;entryDy=0;" edge="1" parent="1" target="i_tsb9h0ke1adV2tE7oU-3">
          <mxGeometry width="50" height="50" relative="1" as="geometry">
            <mxPoint x="-130" y="287" as="sourcePoint" />
            <mxPoint x="246" y="233" as="targetPoint" />
          </mxGeometry>
        </mxCell>
        <mxCell id="i_tsb9h0ke1adV2tE7oU-15" value="" style="endArrow=none;html=1;rounded=0;entryX=0;entryY=0.5;entryDx=0;entryDy=0;" edge="1" parent="1" target="i_tsb9h0ke1adV2tE7oU-4">
          <mxGeometry width="50" height="50" relative="1" as="geometry">
            <mxPoint x="-132" y="287" as="sourcePoint" />
            <mxPoint x="246" y="233" as="targetPoint" />
          </mxGeometry>
        </mxCell>
        <mxCell id="i_tsb9h0ke1adV2tE7oU-16" value="" style="endArrow=none;html=1;rounded=0;entryX=0.013;entryY=0.418;entryDx=0;entryDy=0;entryPerimeter=0;" edge="1" parent="1" target="i_tsb9h0ke1adV2tE7oU-5">
          <mxGeometry width="50" height="50" relative="1" as="geometry">
            <mxPoint x="-130" y="288" as="sourcePoint" />
            <mxPoint x="246" y="233" as="targetPoint" />
          </mxGeometry>
        </mxCell>
        <mxCell id="i_tsb9h0ke1adV2tE7oU-64" value="&amp;lt;&amp;lt;extend&amp;gt;&amp;gt;" style="text;html=1;align=center;verticalAlign=middle;resizable=0;points=[];autosize=1;strokeColor=none;fillColor=none;" vertex="1" parent="1">
          <mxGeometry x="181" y="408" width="82" height="26" as="geometry" />
        </mxCell>
        <mxCell id="i_tsb9h0ke1adV2tE7oU-65" value="&amp;lt;&amp;lt;extend&amp;gt;&amp;gt;" style="text;html=1;align=center;verticalAlign=middle;resizable=0;points=[];autosize=1;strokeColor=none;fillColor=none;" vertex="1" parent="1">
          <mxGeometry x="179" y="455" width="82" height="26" as="geometry" />
        </mxCell>
      </root>
    </mxGraphModel>
  </diagram>
</mxfile>
